<?xml version="1.0" standalone="no"?>
<svg xmlns:xlink="http://www.w3.org/1999/xlink" id="wave" style="transform:rotate(0deg); transition: 0.3s" viewBox="0 0 1440 320" version="1.1" xmlns="http://www.w3.org/2000/svg"><defs><linearGradient id="sw-gradient-0" x1="0" x2="0" y1="1" y2="0"><stop stop-color="rgba(243, 106, 62, 1)" offset="0%"/><stop stop-color="rgba(255, 179, 11, 1)" offset="100%"/></linearGradient></defs><path style="transform:translate(0, 0px); opacity:1" fill="url(#sw-gradient-0)" d="M0,32L120,42.7C240,53,480,75,720,112C960,149,1200,203,1440,192C1680,181,1920,107,2160,106.7C2400,107,2640,181,2880,218.7C3120,256,3360,256,3600,245.3C3840,235,4080,213,4320,192C4560,171,4800,149,5040,128C5280,107,5520,85,5760,69.3C6000,53,6240,43,6480,48C6720,53,6960,75,7200,106.7C7440,139,7680,181,7920,192C8160,203,8400,181,8640,160C8880,139,9120,117,9360,106.7C9600,96,9840,96,10080,96C10320,96,10560,96,10800,85.3C11040,75,11280,53,11520,37.3C11760,21,12000,11,12240,48C12480,85,12720,171,12960,202.7C13200,235,13440,213,13680,197.3C13920,181,14160,171,14400,154.7C14640,139,14880,117,15120,101.3C15360,85,15600,75,15840,64C16080,53,16320,43,16560,42.7C16800,43,17040,53,17160,58.7L17280,64L17280,320L17160,320C17040,320,16800,320,16560,320C16320,320,16080,320,15840,320C15600,320,15360,320,15120,320C14880,320,14640,320,14400,320C14160,320,13920,320,13680,320C13440,320,13200,320,12960,320C12720,320,12480,320,12240,320C12000,320,11760,320,11520,320C11280,320,11040,320,10800,320C10560,320,10320,320,10080,320C9840,320,9600,320,9360,320C9120,320,8880,320,8640,320C8400,320,8160,320,7920,320C7680,320,7440,320,7200,320C6960,320,6720,320,6480,320C6240,320,6000,320,5760,320C5520,320,5280,320,5040,320C4800,320,4560,320,4320,320C4080,320,3840,320,3600,320C3360,320,3120,320,2880,320C2640,320,2400,320,2160,320C1920,320,1680,320,1440,320C1200,320,960,320,720,320C480,320,240,320,120,320L0,320Z"/></svg>